<svg width="516.367" height="41.664" viewBox="0 0 516.367 41.664" fill="none" xmlns="http://www.w3.org/2000/svg">
<g id="Header">
<line id="Line 1" x1="228.107" y1="21.332" y2="21.332" stroke="#D4D4D8"/>
<path id="ornament" d="M254.683 38.304C254.683 37.1467 254.963 36.3067 255.523 35.784C256.083 35.224 256.867 34.944 257.875 34.944C258.921 34.944 259.723 35.224 260.283 35.784C260.843 36.3067 261.123 37.1467 261.123 38.304C261.123 39.424 260.843 40.264 260.283 40.824C259.723 41.384 258.921 41.664 257.875 41.664C256.867 41.664 256.083 41.384 255.523 40.824C254.963 40.264 254.683 39.424 254.683 38.304ZM254.683 3.36C254.683 2.20267 254.963 1.36267 255.523 0.839999C256.083 0.28 256.867 0 257.875 0C258.921 0 259.723 0.28 260.283 0.839999C260.843 1.36267 261.123 2.20267 261.123 3.36C261.123 4.44267 260.843 5.264 260.283 5.824C259.723 6.384 258.921 6.664 257.875 6.664C256.867 6.664 256.083 6.384 255.523 5.824C254.963 5.264 254.683 4.44267 254.683 3.36ZM238.107 20.944C238.107 19.7867 238.387 18.9467 238.947 18.424C239.507 17.864 240.291 17.584 241.299 17.584C242.345 17.584 243.147 17.864 243.707 18.424C244.267 18.9467 244.547 19.7867 244.547 20.944C244.547 22.064 244.267 22.904 243.707 23.464C243.147 23.9867 242.345 24.248 241.299 24.248C240.291 24.248 239.507 23.9867 238.947 23.464C238.387 22.904 238.107 22.064 238.107 20.944ZM271.819 20.944C271.819 19.7867 272.099 18.9467 272.659 18.424C273.219 17.864 274.003 17.584 275.011 17.584C276.057 17.584 276.859 17.864 277.419 18.424C277.979 18.9467 278.259 19.7867 278.259 20.944C278.259 22.064 277.979 22.904 277.419 23.464C276.859 23.9867 276.057 24.248 275.011 24.248C274.003 24.248 273.219 23.9867 272.659 23.464C272.099 22.904 271.819 22.064 271.819 20.944Z" fill="#D4D4D8"/>
<line id="Line 2" x1="516.367" y1="21.332" x2="288.259" y2="21.332" stroke="#D4D4D8"/>
</g>
</svg>
