<svg preserveAspectRatio="none" width="100%" height="100%" overflow="visible" style="display: block;" viewBox="0 0 38 38" fill="none" xmlns="http://www.w3.org/2000/svg">
<g id="Fire">
<path id="Vector" d="M27.2962 22.7615C26.9882 24.4814 26.1608 26.0657 24.9251 27.3011C23.6894 28.5365 22.1049 29.3637 20.3849 29.6712C20.3196 29.6817 20.2536 29.6871 20.1875 29.6875C19.8896 29.6875 19.6027 29.5755 19.3835 29.3737C19.1644 29.172 19.029 28.8952 19.0044 28.5984C18.9797 28.3015 19.0675 28.0062 19.2504 27.7711C19.4332 27.5359 19.6978 27.3781 19.9916 27.3289C22.4512 26.9147 24.5382 24.8277 24.9553 22.3636C25.0081 22.053 25.182 21.7761 25.439 21.5938C25.6959 21.4114 26.0148 21.3386 26.3254 21.3914C26.636 21.4441 26.9129 21.6181 27.0953 21.8751C27.2776 22.132 27.3504 22.4508 27.2977 22.7615H27.2962ZM32.0625 21.375C32.0625 24.8394 30.6863 28.1619 28.2366 30.6116C25.7869 33.0613 22.4644 34.4375 19 34.4375C15.5356 34.4375 12.2131 33.0613 9.76342 30.6116C7.31372 28.1619 5.9375 24.8394 5.9375 21.375C5.9375 17.2307 7.57031 12.9928 10.7855 8.78013C10.8872 8.64674 11.0161 8.53643 11.1636 8.45647C11.3111 8.3765 11.4739 8.32871 11.6412 8.31623C11.8085 8.30374 11.9766 8.32686 12.1343 8.38405C12.2921 8.44124 12.4359 8.5312 12.5563 8.64802L16.1366 12.1229L19.4023 3.15583C19.4675 2.97698 19.5748 2.81644 19.7151 2.68775C19.8554 2.55905 20.0245 2.46596 20.2083 2.41634C20.3921 2.36672 20.5851 2.36201 20.7711 2.40262C20.9571 2.44322 21.1306 2.52795 21.277 2.64966C24.5234 5.3438 32.0625 12.5504 32.0625 21.375ZM29.6875 21.375C29.6875 14.5336 24.3749 8.6213 21.047 5.59169L17.7412 14.6568C17.6734 14.843 17.56 15.0092 17.4115 15.1404C17.263 15.2715 17.0839 15.3634 16.8908 15.4077C16.6976 15.452 16.4965 15.4472 16.3056 15.3938C16.1148 15.3404 15.9404 15.2401 15.7982 15.1021L11.8839 11.3051C9.51336 14.7265 8.3125 18.1094 8.3125 21.375C8.3125 24.2096 9.4385 26.928 11.4428 28.9323C13.4471 30.9365 16.1655 32.0625 19 32.0625C21.8345 32.0625 24.5529 30.9365 26.5572 28.9323C28.5615 26.928 29.6875 24.2096 29.6875 21.375Z" fill="var(--fill-0, #18181B)"/>
</g>
</svg>
