<svg preserveAspectRatio="none" width="100%" height="100%" overflow="visible" style="display: block;" viewBox="0 0 38 38" fill="none" xmlns="http://www.w3.org/2000/svg">
<g id="CrosshairSimple">
<path id="Vector" d="M19 3.5625C15.9468 3.5625 12.9621 4.46789 10.4234 6.16419C7.8847 7.86048 5.90604 10.2715 4.73761 13.0923C3.56918 15.9132 3.26347 19.0171 3.85913 22.0117C4.45479 25.0063 5.92507 27.757 8.08404 29.916C10.243 32.0749 12.9937 33.5452 15.9883 34.1409C18.9829 34.7365 22.0868 34.4308 24.9077 33.2624C27.7285 32.094 30.1395 30.1153 31.8358 27.5766C33.5321 25.0379 34.4375 22.0532 34.4375 19C34.4332 14.907 32.8053 10.983 29.9112 8.08881C27.017 5.19466 23.093 3.56682 19 3.5625ZM20.1875 32.0076V27.3125C20.1875 26.9976 20.0624 26.6955 19.8397 26.4728C19.617 26.2501 19.3149 26.125 19 26.125C18.6851 26.125 18.383 26.2501 18.1603 26.4728C17.9376 26.6955 17.8125 26.9976 17.8125 27.3125V32.0076C14.7727 31.7261 11.927 30.3904 9.76828 28.2317C7.6096 26.073 6.27386 23.2273 5.99242 20.1875H10.6875C11.0024 20.1875 11.3045 20.0624 11.5272 19.8397C11.7499 19.617 11.875 19.3149 11.875 19C11.875 18.6851 11.7499 18.383 11.5272 18.1603C11.3045 17.9376 11.0024 17.8125 10.6875 17.8125H5.99242C6.27386 14.7727 7.6096 11.927 9.76828 9.76828C11.927 7.6096 14.7727 6.27386 17.8125 5.99242V10.6875C17.8125 11.0024 17.9376 11.3045 18.1603 11.5272C18.383 11.7499 18.6851 11.875 19 11.875C19.3149 11.875 19.617 11.7499 19.8397 11.5272C20.0624 11.3045 20.1875 11.0024 20.1875 10.6875V5.99242C23.2273 6.27386 26.073 7.6096 28.2317 9.76828C30.3904 11.927 31.7261 14.7727 32.0076 17.8125H27.3125C26.9976 17.8125 26.6955 17.9376 26.4728 18.1603C26.2501 18.383 26.125 18.6851 26.125 19C26.125 19.3149 26.2501 19.617 26.4728 19.8397C26.6955 20.0624 26.9976 20.1875 27.3125 20.1875H32.0076C31.7261 23.2273 30.3904 26.073 28.2317 28.2317C26.073 30.3904 23.2273 31.7261 20.1875 32.0076Z" fill="var(--fill-0, #18181B)"/>
</g>
</svg>
