<svg preserveAspectRatio="none" width="100%" height="100%" overflow="visible" style="display: block;" viewBox="0 0 38 38" fill="none" xmlns="http://www.w3.org/2000/svg">
<g id="ChartBar">
<path id="Vector" d="M33.25 29.6875H32.0625V5.9375C32.0625 5.62256 31.9374 5.32051 31.7147 5.09781C31.492 4.87511 31.1899 4.75 30.875 4.75H22.5625C22.2476 4.75 21.9455 4.87511 21.7228 5.09781C21.5001 5.32051 21.375 5.62256 21.375 5.9375V11.875H14.25C13.9351 11.875 13.633 12.0001 13.4103 12.2228C13.1876 12.4455 13.0625 12.7476 13.0625 13.0625V19H7.125C6.81006 19 6.50801 19.1251 6.28531 19.3478C6.06261 19.5705 5.9375 19.8726 5.9375 20.1875V29.6875H4.75C4.43506 29.6875 4.13301 29.8126 3.91031 30.0353C3.68761 30.258 3.5625 30.5601 3.5625 30.875C3.5625 31.1899 3.68761 31.492 3.91031 31.7147C4.13301 31.9374 4.43506 32.0625 4.75 32.0625H33.25C33.5649 32.0625 33.867 31.9374 34.0897 31.7147C34.3124 31.492 34.4375 31.1899 34.4375 30.875C34.4375 30.5601 34.3124 30.258 34.0897 30.0353C33.867 29.8126 33.5649 29.6875 33.25 29.6875ZM23.75 7.125H29.6875V29.6875H23.75V7.125ZM15.4375 14.25H21.375V29.6875H15.4375V14.25ZM8.3125 21.375H13.0625V29.6875H8.3125V21.375Z" fill="var(--fill-0, #18181B)"/>
</g>
</svg>
