<svg preserveAspectRatio="none" width="100%" height="100%" overflow="visible" style="display: block;" viewBox="0 0 38 38" fill="none" xmlns="http://www.w3.org/2000/svg">
<g id="Scroll">
<path id="Vector" d="M14.25 15.4375C14.25 15.1226 14.3751 14.8205 14.5978 14.5978C14.8205 14.3751 15.1226 14.25 15.4375 14.25H24.9375C25.2524 14.25 25.5545 14.3751 25.7772 14.5978C25.9999 14.8205 26.125 15.1226 26.125 15.4375C26.125 15.7524 25.9999 16.0545 25.7772 16.2772C25.5545 16.4999 25.2524 16.625 24.9375 16.625H15.4375C15.1226 16.625 14.8205 16.4999 14.5978 16.2772C14.3751 16.0545 14.25 15.7524 14.25 15.4375ZM15.4375 21.375H24.9375C25.2524 21.375 25.5545 21.2499 25.7772 21.0272C25.9999 20.8045 26.125 20.5024 26.125 20.1875C26.125 19.8726 25.9999 19.5705 25.7772 19.3478C25.5545 19.1251 25.2524 19 24.9375 19H15.4375C15.1226 19 14.8205 19.1251 14.5978 19.3478C14.3751 19.5705 14.25 19.8726 14.25 20.1875C14.25 20.5024 14.3751 20.8045 14.5978 21.0272C14.8205 21.2499 15.1226 21.375 15.4375 21.375ZM34.4375 28.5C34.4375 29.7598 33.9371 30.968 33.0463 31.8588C32.1555 32.7496 30.9473 33.25 29.6875 33.25H13.0625C11.8027 33.25 10.5945 32.7496 9.70374 31.8588C8.81294 30.968 8.3125 29.7598 8.3125 28.5V9.5C8.3125 8.87011 8.06228 8.26602 7.61688 7.82062C7.17148 7.37522 6.56739 7.125 5.9375 7.125C5.30761 7.125 4.70352 7.37522 4.25812 7.82062C3.81272 8.26602 3.5625 8.87011 3.5625 9.5C3.5625 10.352 4.27945 10.928 4.28687 10.9339C4.48341 11.0851 4.62766 11.2941 4.69939 11.5315C4.77112 11.7689 4.76673 12.0228 4.68684 12.2576C4.60695 12.4923 4.45556 12.6962 4.25391 12.8406C4.05227 12.9849 3.81049 13.0625 3.5625 13.0625C3.3057 13.0629 3.05588 12.979 2.85148 12.8235C2.6793 12.6973 1.1875 11.5202 1.1875 9.5C1.1875 8.24022 1.68795 7.03204 2.57874 6.14124C3.46954 5.25044 4.67772 4.75 5.9375 4.75H26.125C27.3848 4.75 28.593 5.25044 29.4838 6.14124C30.3746 7.03204 30.875 8.24022 30.875 9.5V24.9375H32.0625C32.3194 24.9375 32.5694 25.0208 32.775 25.175C32.9531 25.3027 34.4375 26.4798 34.4375 28.5ZM14.2886 25.7509C14.3697 25.5114 14.5246 25.3038 14.731 25.1576C14.9373 25.0115 15.1847 24.9345 15.4375 24.9375H28.5V9.5C28.5 8.87011 28.2498 8.26602 27.8044 7.82062C27.359 7.37522 26.7549 7.125 26.125 7.125H10.0477C10.4677 7.84597 10.6885 8.66562 10.6875 9.5V28.5C10.6875 29.1299 10.9377 29.734 11.3831 30.1794C11.8285 30.6248 12.4326 30.875 13.0625 30.875C13.6924 30.875 14.2965 30.6248 14.7419 30.1794C15.1873 29.734 15.4375 29.1299 15.4375 28.5C15.4375 27.648 14.7205 27.072 14.7131 27.0661C14.5108 26.9213 14.3603 26.7154 14.2838 26.4786C14.2074 26.2418 14.2091 25.9867 14.2886 25.7509ZM32.0625 28.5C32.0477 28.06 31.8778 27.6394 31.583 27.3125H17.6299C17.7493 27.697 17.8098 28.0974 17.8095 28.5C17.8107 29.334 17.591 30.1534 17.1727 30.875H29.6875C30.3174 30.875 30.9215 30.6248 31.3669 30.1794C31.8123 29.734 32.0625 29.1299 32.0625 28.5Z" fill="var(--fill-0, #18181B)"/>
</g>
</svg>
