<svg preserveAspectRatio="none" width="100%" height="100%" overflow="visible" style="display: block;" viewBox="0 0 24 24" fill="none" xmlns="http://www.w3.org/2000/svg">
<g id="UserList">
<path id="Vector" d="M14.25 7.5C14.25 7.30109 14.329 7.11032 14.4697 6.96967C14.6103 6.82902 14.8011 6.75 15 6.75H23.25C23.4489 6.75 23.6397 6.82902 23.7803 6.96967C23.921 7.11032 24 7.30109 24 7.5C24 7.69891 23.921 7.88968 23.7803 8.03033C23.6397 8.17098 23.4489 8.25 23.25 8.25H15C14.8011 8.25 14.6103 8.17098 14.4697 8.03033C14.329 7.88968 14.25 7.69891 14.25 7.5ZM23.25 11.25H15C14.8011 11.25 14.6103 11.329 14.4697 11.4697C14.329 11.6103 14.25 11.8011 14.25 12C14.25 12.1989 14.329 12.3897 14.4697 12.5303C14.6103 12.671 14.8011 12.75 15 12.75H23.25C23.4489 12.75 23.6397 12.671 23.7803 12.5303C23.921 12.3897 24 12.1989 24 12C24 11.8011 23.921 11.6103 23.7803 11.4697C23.6397 11.329 23.4489 11.25 23.25 11.25ZM23.25 15.75H17.25C17.0511 15.75 16.8603 15.829 16.7197 15.9697C16.579 16.1103 16.5 16.3011 16.5 16.5C16.5 16.6989 16.579 16.8897 16.7197 17.0303C16.8603 17.171 17.0511 17.25 17.25 17.25H23.25C23.4489 17.25 23.6397 17.171 23.7803 17.0303C23.921 16.8897 24 16.6989 24 16.5C24 16.3011 23.921 16.1103 23.7803 15.9697C23.6397 15.829 23.4489 15.75 23.25 15.75ZM10.2459 13.3125C10.9903 12.7392 11.5365 11.9473 11.808 11.0478C12.0795 10.1483 12.0627 9.18646 11.7599 8.29705C11.4571 7.40764 10.8834 6.63532 10.1195 6.08841C9.35554 5.54149 8.43956 5.24741 7.50001 5.24741C6.56047 5.24741 5.64449 5.54149 4.88053 6.08841C4.11658 6.63532 3.54297 7.40764 3.24015 8.29705C2.93733 9.18646 2.92049 10.1483 3.192 11.0478C3.4635 11.9473 4.00973 12.7392 4.75407 13.3125C2.82095 14.1309 1.29751 15.7781 0.773449 17.8125C0.744826 17.9234 0.741963 18.0393 0.765082 18.1514C0.7882 18.2636 0.836686 18.3689 0.906822 18.4594C0.976959 18.5499 1.06688 18.6232 1.16971 18.6735C1.27253 18.7239 1.38552 18.7501 1.50001 18.75H13.5C13.6145 18.7501 13.7275 18.7239 13.8303 18.6735C13.9331 18.6232 14.0231 18.5499 14.0932 18.4594C14.1633 18.3689 14.2118 18.2636 14.2349 18.1514C14.2581 18.0393 14.2552 17.9234 14.2266 17.8125C13.7025 15.7772 12.1791 14.13 10.2459 13.3125Z" fill="var(--fill-0, white)"/>
</g>
</svg>
